<svg width="627" height="664" viewBox="0 0 627 664" fill="none" xmlns="http://www.w3.org/2000/svg">
<g clip-path="url(#clip0_212_211)">
<path fill-rule="evenodd" clip-rule="evenodd" d="M252.081 297.899C247.47 298.339 242.841 298.827 238.94 299.482C169.352 310.776 95.2182 343.622 38.9504 395.449C36.9209 397.346 36.3463 400.517 37.8515 402.6C39.3568 404.683 42.1258 404.788 44.157 402.887C99.3774 352.546 171.524 320.572 239.375 309.576C241.555 309.183 244.092 308.894 246.635 308.589C244.446 314.55 244.055 320.072 244.743 324.96C245.972 332.299 250.027 338.683 255.848 343.778C264.016 350.869 275.309 355.385 286.631 357.066C295.353 358.258 304.073 357.607 310.468 354.908C315.8 352.808 319.712 349.351 322.037 344.925C324.468 340.256 325.104 334.174 322.37 326.6C317.972 313.606 307.684 305.845 294.666 301.594C285.161 298.506 274.37 297.457 263.93 297.444C266.325 294.706 269.17 291.86 272.469 288.89C298.078 266.939 341.909 254.819 389.538 249.683C462 241.943 543.36 250.711 583.333 267.816C585.365 268.685 588.326 267.421 589.469 264.79C590.612 262.159 589.508 259.152 587.475 258.282C546.487 240.741 463.655 231.668 389.541 239.51C339.789 244.909 293.883 258.097 267.378 281.185C260.817 287.038 255.614 292.541 252.081 297.899ZM256.635 307.758C253.968 312.971 253.105 317.73 253.649 322.025C254.557 327.331 257.814 331.855 261.869 335.465C268.857 341.574 278.823 345.453 288.637 346.906C295.456 347.854 302.374 347.648 307.617 345.752C310.507 344.648 312.798 343.079 314.218 340.736C315.322 338.195 315.092 335.022 313.958 331.16C310.108 320.606 301.425 314.701 291.214 311.39C280.647 307.971 267.757 307.127 256.635 307.758Z" fill="#383838"/>
<path fill-rule="evenodd" clip-rule="evenodd" d="M44.2608 402.392C63.8852 380.344 78.6908 350.901 87.4738 322.368C88.2707 319.61 87.0503 316.874 84.8798 316.321C82.3731 315.618 79.6453 317.268 78.8501 320.022C70.3808 346.908 56.6348 374.843 37.9642 395.62C36.2199 397.785 36.0366 400.982 37.6558 402.803C39.6147 404.767 42.5165 404.557 44.2608 402.392Z" fill="#383838"/>
<path fill-rule="evenodd" clip-rule="evenodd" d="M43.5506 403.705C66.9082 389.707 95.1875 392.123 118.538 398.481C120.708 399.034 123.436 397.379 124.233 394.621C125.028 391.867 123.804 389.133 121.295 388.434C96.1294 381.632 65.2695 379.616 39.7589 394.87C37.5224 396.319 36.5561 399.469 37.5209 401.871C38.4841 404.277 41.3159 405.149 43.5506 403.705Z" fill="#383838"/>
</g>
<defs>
<clipPath id="clip0_212_211">
<rect width="454" height="526" fill="white" transform="translate(209.635) rotate(23.4873)"/>
</clipPath>
</defs>
</svg>
