<svg width="877" height="121" viewBox="0 0 877 121" fill="none" xmlns="http://www.w3.org/2000/svg">
<path d="M100.639 119H73.2791L27.5191 49.72V119H0.159136V6.68H27.5191L73.2791 76.28V6.68H100.639V119ZM204.632 72.92C204.632 75.48 204.472 78.1467 204.152 80.92H142.232C142.658 86.4667 144.418 90.7333 147.512 93.72C150.712 96.6 154.605 98.04 159.192 98.04C166.018 98.04 170.765 95.16 173.432 89.4H202.552C201.058 95.2667 198.338 100.547 194.392 105.24C190.552 109.933 185.698 113.613 179.832 116.28C173.965 118.947 167.405 120.28 160.152 120.28C151.405 120.28 143.618 118.413 136.792 114.68C129.965 110.947 124.632 105.613 120.792 98.68C116.952 91.7467 115.032 83.64 115.032 74.36C115.032 65.08 116.898 56.9733 120.632 50.04C124.472 43.1067 129.805 37.7733 136.632 34.04C143.458 30.3067 151.298 28.44 160.152 28.44C168.792 28.44 176.472 30.2533 183.192 33.88C189.912 37.5067 195.138 42.68 198.872 49.4C202.712 56.12 204.632 63.96 204.632 72.92ZM176.632 65.72C176.632 61.0267 175.032 57.2933 171.832 54.52C168.632 51.7467 164.632 50.36 159.832 50.36C155.245 50.36 151.352 51.6933 148.152 54.36C145.058 57.0267 143.138 60.8133 142.392 65.72H176.632ZM347.225 29.72L323.065 119H292.825L278.745 61.08L264.185 119H234.105L209.785 29.72H237.145L249.785 93.56L264.825 29.72H293.785L308.985 93.24L321.465 29.72H347.225ZM393.979 120.28C386.192 120.28 379.259 118.947 373.179 116.28C367.099 113.613 362.299 109.987 358.779 105.4C355.259 100.707 353.286 95.48 352.859 89.72H379.899C380.219 92.8133 381.659 95.32 384.219 97.24C386.779 99.16 389.926 100.12 393.659 100.12C397.072 100.12 399.686 99.48 401.499 98.2C403.419 96.8133 404.379 95.0533 404.379 92.92C404.379 90.36 403.046 88.4933 400.379 87.32C397.712 86.04 393.392 84.6533 387.419 83.16C381.019 81.6667 375.686 80.12 371.419 78.52C367.152 76.8133 363.472 74.2 360.379 70.68C357.286 67.0533 355.739 62.2 355.739 56.12C355.739 51 357.126 46.36 359.899 42.2C362.779 37.9333 366.939 34.5733 372.379 32.12C377.926 29.6667 384.486 28.44 392.059 28.44C403.259 28.44 412.059 31.2133 418.459 36.76C424.966 42.3067 428.699 49.6667 429.659 58.84H404.379C403.952 55.7467 402.566 53.2933 400.219 51.48C397.979 49.6667 394.992 48.76 391.259 48.76C388.059 48.76 385.606 49.4 383.899 50.68C382.192 51.8533 381.339 53.5067 381.339 55.64C381.339 58.2 382.672 60.12 385.339 61.4C388.112 62.68 392.379 63.96 398.139 65.24C404.752 66.9467 410.139 68.6533 414.299 70.36C418.459 71.96 422.086 74.6267 425.179 78.36C428.379 81.9867 430.032 86.8933 430.139 93.08C430.139 98.3067 428.646 103 425.659 107.16C422.779 111.213 418.566 114.413 413.019 116.76C407.579 119.107 401.232 120.28 393.979 120.28ZM474.238 0.599998V119H446.878V0.599998H474.238ZM578.225 72.92C578.225 75.48 578.065 78.1467 577.745 80.92H515.825C516.252 86.4667 518.012 90.7333 521.105 93.72C524.305 96.6 528.199 98.04 532.785 98.04C539.612 98.04 544.359 95.16 547.025 89.4H576.145C574.652 95.2667 571.932 100.547 567.985 105.24C564.145 109.933 559.292 113.613 553.425 116.28C547.559 118.947 540.999 120.28 533.745 120.28C524.999 120.28 517.212 118.413 510.385 114.68C503.559 110.947 498.225 105.613 494.385 98.68C490.545 91.7467 488.625 83.64 488.625 74.36C488.625 65.08 490.492 56.9733 494.225 50.04C498.065 43.1067 503.399 37.7733 510.225 34.04C517.052 30.3067 524.892 28.44 533.745 28.44C542.385 28.44 550.065 30.2533 556.785 33.88C563.505 37.5067 568.732 42.68 572.465 49.4C576.305 56.12 578.225 63.96 578.225 72.92ZM550.225 65.72C550.225 61.0267 548.625 57.2933 545.425 54.52C542.225 51.7467 538.225 50.36 533.425 50.36C528.839 50.36 524.945 51.6933 521.745 54.36C518.652 57.0267 516.732 60.8133 515.985 65.72H550.225ZM642.419 95.8V119H628.499C618.579 119 610.846 116.6 605.299 111.8C599.752 106.893 596.979 98.9467 596.979 87.96V52.44H586.099V29.72H596.979V7.96H624.339V29.72H642.259V52.44H624.339V88.28C624.339 90.9467 624.979 92.8667 626.259 94.04C627.539 95.2133 629.672 95.8 632.659 95.8H642.419ZM707.419 95.8V119H693.499C683.579 119 675.846 116.6 670.299 111.8C664.752 106.893 661.979 98.9467 661.979 87.96V52.44H651.099V29.72H661.979V7.96H689.339V29.72H707.259V52.44H689.339V88.28C689.339 90.9467 689.979 92.8667 691.259 94.04C692.539 95.2133 694.672 95.8 697.659 95.8H707.419ZM806.819 72.92C806.819 75.48 806.659 78.1467 806.339 80.92H744.419C744.846 86.4667 746.606 90.7333 749.699 93.72C752.899 96.6 756.792 98.04 761.379 98.04C768.206 98.04 772.952 95.16 775.619 89.4H804.739C803.246 95.2667 800.526 100.547 796.579 105.24C792.739 109.933 787.886 113.613 782.019 116.28C776.152 118.947 769.592 120.28 762.339 120.28C753.592 120.28 745.806 118.413 738.979 114.68C732.152 110.947 726.819 105.613 722.979 98.68C719.139 91.7467 717.219 83.64 717.219 74.36C717.219 65.08 719.086 56.9733 722.819 50.04C726.659 43.1067 731.992 37.7733 738.819 34.04C745.646 30.3067 753.486 28.44 762.339 28.44C770.979 28.44 778.659 30.2533 785.379 33.88C792.099 37.5067 797.326 42.68 801.059 49.4C804.899 56.12 806.819 63.96 806.819 72.92ZM778.819 65.72C778.819 61.0267 777.219 57.2933 774.019 54.52C770.819 51.7467 766.819 50.36 762.019 50.36C757.432 50.36 753.539 51.6933 750.339 54.36C747.246 57.0267 745.326 60.8133 744.579 65.72H778.819ZM848.613 44.6C851.813 39.6933 855.813 35.8533 860.613 33.08C865.413 30.2 870.746 28.76 876.613 28.76V57.72H869.093C862.266 57.72 857.146 59.2133 853.733 62.2C850.32 65.08 848.613 70.2 848.613 77.56V119H821.253V29.72H848.613V44.6Z" fill="#1A1A1A" fill-opacity="0.780392"/>
</svg>
