<svg width="30" height="30" viewBox="0 0 30 30" fill="none" xmlns="http://www.w3.org/2000/svg">
<rect width="30" height="30" rx="15" fill="#383838"/>
<path d="M21.0375 10.75C20.5563 10.9688 20.0375 11.1125 19.5 11.1813C20.05 10.85 20.475 10.325 20.675 9.69375C20.1563 10.0062 19.5813 10.225 18.975 10.35C18.4813 9.8125 17.7875 9.5 17 9.5C15.5313 9.5 14.3313 10.7 14.3313 12.1813C14.3313 12.3937 14.3563 12.6 14.4 12.7938C12.175 12.6813 10.1938 11.6125 8.87502 9.99375C8.64377 10.3875 8.51252 10.85 8.51252 11.3375C8.51252 12.2687 8.98127 13.0938 9.70627 13.5625C9.26252 13.5625 8.85002 13.4375 8.48752 13.25V13.2687C8.48752 14.5687 9.41252 15.6562 10.6375 15.9C10.2442 16.0076 9.83133 16.0226 9.43127 15.9438C9.60103 16.4765 9.93349 16.9428 10.3819 17.2768C10.8303 17.6109 11.3722 17.7961 11.9313 17.8063C10.9835 18.5565 9.80877 18.9621 8.60002 18.9562C8.38752 18.9562 8.17502 18.9437 7.96252 18.9187C9.15002 19.6812 10.5625 20.125 12.075 20.125C17 20.125 19.7063 16.0375 19.7063 12.4938C19.7063 12.375 19.7063 12.2625 19.7 12.1437C20.225 11.7687 20.675 11.2938 21.0375 10.75Z" fill="#060606"/>
</svg>
