<svg width="30" height="30" viewBox="0 0 30 30" fill="none" xmlns="http://www.w3.org/2000/svg">
<rect width="30" height="30" rx="15" fill="#383838"/>
<path d="M13.25 16.375L16.4937 14.5L13.25 12.625V16.375ZM20.475 11.4813C20.5562 11.775 20.6125 12.1687 20.65 12.6687C20.6938 13.1687 20.7125 13.6 20.7125 13.975L20.75 14.5C20.75 15.8688 20.65 16.875 20.475 17.5188C20.3187 18.0812 19.9563 18.4437 19.3938 18.6C19.1 18.6812 18.5625 18.7375 17.7375 18.775C16.925 18.8188 16.1813 18.8375 15.4938 18.8375L14.5 18.875C11.8812 18.875 10.25 18.775 9.60625 18.6C9.04375 18.4437 8.68125 18.0812 8.525 17.5188C8.44375 17.225 8.3875 16.8313 8.35 16.3313C8.30625 15.8313 8.2875 15.4 8.2875 15.025L8.25 14.5C8.25 13.1312 8.35 12.125 8.525 11.4813C8.68125 10.9188 9.04375 10.5563 9.60625 10.4C9.9 10.3188 10.4375 10.2625 11.2625 10.225C12.075 10.1812 12.8187 10.1625 13.5062 10.1625L14.5 10.125C17.1187 10.125 18.75 10.225 19.3938 10.4C19.9563 10.5563 20.3187 10.9188 20.475 11.4813Z" fill="#060606"/>
</svg>
